<?xml version="1.0" encoding="UTF-8"?>
<svg width="503px" height="94px" viewBox="0 0 503 94" version="1.1" xmlns="http://www.w3.org/2000/svg" xmlns:xlink="http://www.w3.org/1999/xlink">
    <!-- Generator: Sketch 52.3 (67297) - http://www.bohemiancoding.com/sketch -->
    <title>3</title>
    <desc>Created with Sketch.</desc>
    <defs>
        <linearGradient x1="0%" y1="0%" x2="100%" y2="0%" id="linearGradient-1">
            <stop stop-color="#25235E" offset="0%"></stop>
            <stop stop-color="#AE4792" offset="100%"></stop>
        </linearGradient>
    </defs>
    <g id="Page-1" stroke="none" stroke-width="1" fill="none" fill-rule="evenodd">
        <g id="3" fill="url(#linearGradient-1)">
            <g id="SvgjsG8038">
                <g id="Group">
                    <path d="M44.5852273,50.8596594 C47.9268901,48.9300577 50.9699491,43.1194293 51.4946469,35.1988636 L44.5852273,35.1988636 L44.5852273,50.8596594 Z" id="Path"></path>
                    <path d="M39.8920455,50.8596594 L39.8920455,35.1988636 L32.9826259,35.1988636 C33.5073236,43.1194293 36.5503827,48.9300577 39.8920455,50.8596594 Z" id="Path"></path>
                    <path d="M44.5852273,14.8448861 L44.5852273,30.5056818 L51.4946469,30.5056818 C50.9699491,22.5851162 47.9268901,16.7744878 44.5852273,14.8448861 Z" id="Path"></path>
                    <path d="M32.9826259,30.5056818 L39.8920455,30.5056818 L39.8920455,14.8448861 C36.5503827,16.7744878 33.5073236,22.5851162 32.9826259,30.5056818 Z" id="Path"></path>
                    <path d="M52.8217614,17.367706 C54.8516085,21.4625394 55.9960177,25.9390715 56.1804369,30.5056818 L60.7742406,30.5056818 C60.1227889,25.1911029 57.2283356,20.4092914 52.8217614,17.367706 Z" id="Path"></path>
                    <path d="M23.7030321,35.1988636 C24.3544839,40.5134426 27.2489371,45.2952541 31.6555114,48.3368395 C29.6256642,44.2420061 28.4812551,39.7654739 28.2968358,35.1988636 L23.7030321,35.1988636 Z" id="Path"></path>
                    <path d="M84.4772727,53.9715909 L84.4772727,11.7329545 C84.4704824,5.25583739 79.2214353,0.00679028392 72.7443182,2.08419141e-15 L11.7329545,2.08419141e-15 C5.25583739,0.00679028392 0.00679028392,5.25583739 1.0420957e-15,11.7329545 L1.0420957e-15,53.9715909 C0.00679028392,60.4487081 5.25583739,65.6977552 11.7329545,65.7045455 L28.1590909,65.7045455 L28.1590909,77.4375 C28.1595336,78.3259232 28.6614218,79.1379969 29.4558529,79.5357091 C30.2502841,79.9334214 31.2011613,79.8486385 31.9126977,79.31665 L50.0598239,65.7045455 L72.7443182,65.7045455 C79.2214353,65.6977552 84.4704824,60.4487081 84.4772727,53.9715909 Z M42.2386364,56.3181818 C29.2787726,56.3181818 18.7727273,45.8121365 18.7727273,32.8522727 C18.7727273,19.892409 29.2787726,9.38636364 42.2386364,9.38636364 C55.1985001,9.38636364 65.7045455,19.892409 65.7045455,32.8522727 C65.6892873,45.805811 55.1921747,56.3029236 42.2386364,56.3181818 Z" id="Shape" fill-rule="nonzero"></path>
                    <path d="M52.8217614,48.3368395 C57.2283356,45.2952541 60.1227889,40.5134426 60.7742406,35.1988636 L56.1804369,35.1988636 C55.9960177,39.7654739 54.8516085,44.2420061 52.8217614,48.3368395 Z" id="Path"></path>
                    <path d="M23.7030321,30.5056818 L28.2968358,30.5056818 C28.4812551,25.9390715 29.6256642,21.4625394 31.6555114,17.367706 C27.2489371,20.4092914 24.3544839,25.1911029 23.7030321,30.5056818 Z" id="Path"></path>
                    <path d="M91.5170455,14.0795455 C90.2210591,14.0795455 89.1704545,15.13015 89.1704545,16.4261364 C89.1704545,17.7221227 90.2210591,18.7727273 91.5170455,18.7727273 C95.4032354,18.776995 98.5525504,21.92631 98.5568182,25.8125 L98.5568182,68.0511364 C98.5525504,71.9373263 95.4032354,75.0866413 91.5170455,75.0909091 L72.7443182,75.0909091 C72.1218491,75.0905353 71.5247673,75.3376446 71.084615,75.7777969 C70.6444628,76.2179491 70.3973535,76.8150309 70.3977273,77.4375 L70.3977273,86.8238636 L55.3786068,75.55835 C54.3407809,74.7812766 52.8695144,74.9926583 52.092441,76.0304841 C51.3153675,77.06831 51.5267492,78.5395766 52.564575,79.31665 L71.3373023,93.3961955 C72.0487332,93.9286586 72.999861,94.0137029 73.7944708,93.6159012 C74.5890806,93.2180996 75.0909096,92.4056685 75.0909091,91.5170455 L75.0909091,79.7840909 L91.5170455,79.7840909 C97.9941626,79.7773006 103.24321,74.5282535 103.25,68.0511364 L103.25,25.8125 C103.24321,19.3353828 97.9941626,14.0863357 91.5170455,14.0795455 Z" id="Path"></path>
                </g>
            </g>
            <g id="SvgjsG8039" transform="translate(122.101604, 17.000006)" fill-rule="nonzero">
                <path d="M9.75401005,3.32473772e-16 C11.0374324,3.32473772e-16 12.0641703,1.0267379 12.0641703,2.31016027 L12.0641703,6.99465194 C12.0641703,8.27807432 11.0374324,9.30481222 9.75401005,9.30481222 L3.14438482,9.30481222 C1.92513356,9.30481222 0.898395662,8.27807432 0.898395662,6.99465194 L0.898395662,2.31016027 C0.898395662,1.0267379 1.92513356,3.32473772e-16 3.14438482,3.32473772e-16 L9.75401005,3.32473772e-16 Z M38.4385001,1.40588707e-15 C39.6577514,1.40588707e-15 40.6844893,1.0267379 40.6844893,2.31016027 L40.6844893,6.99465194 C40.6844893,8.27807432 39.6577514,9.30481222 38.4385001,9.30481222 L25.5401053,9.30481222 L25.5401053,45.7540077 C25.5401053,46.9732589 24.5133674,47.9999968 23.2941161,47.9999968 L18.35294,47.9999968 C17.0695176,47.9999968 16.0427797,46.9732589 16.0427797,45.7540077 L16.0427797,2.31016027 C16.0427797,1.0267379 17.0695176,-1.44388307e-15 18.35294,-1.44388307e-15 L38.4385001,1.40588707e-15 Z M89.0053417,44.4705853 C89.3261973,45.1764676 89.197855,45.946521 88.8128283,46.5882322 C88.3636305,47.2299434 87.6577482,47.6149701 86.9518659,47.6149701 L44.2139008,47.6149701 C43.4438474,47.6149701 42.7379651,47.2299434 42.3529384,46.5882322 C41.9037405,45.946521 41.8395694,45.1764676 42.160425,44.4705853 L44.1497297,39.7860936 C44.4705853,38.9518691 45.3048098,38.374329 46.2032055,38.374329 L76.1069468,38.374329 L74.1818133,33.7540085 L65.5828834,13.2192505 L56.9839534,33.7540085 C56.6630978,34.588233 55.8288733,35.101602 54.9304776,35.101602 L49.5401037,35.101602 C48.7700502,35.101602 48.0641679,34.7165752 47.6149701,34.0748641 C47.2299434,33.497324 47.1657723,32.6630994 47.4224567,31.9572171 L60.4491939,1.41176461 C60.7700494,0.51336895 61.604274,-8.54931042e-15 62.5026697,-8.54931042e-15 L68.6630971,-8.54931042e-15 C69.5614927,-8.54931042e-15 70.3315461,0.51336895 70.7165729,1.41176461 L89.0053417,44.4705853 Z M125.133682,29.197859 L134.82352,44.0213875 C135.272718,44.7272698 135.336889,45.5614943 134.887692,46.3315477 C134.502665,47.03743 133.732611,47.4866279 132.962558,47.4866279 L127.122986,47.4866279 C126.352933,47.4866279 125.64705,47.1016012 125.262024,46.45989 L115.508014,30.9946504 L104.085555,30.9946504 L104.085555,45.2406387 C104.085555,46.45989 103.058817,47.4866279 101.839565,47.4866279 L96.9625604,47.4866279 C95.7433092,47.4866279 94.7165713,46.45989 94.7165713,45.2406387 L94.7165713,24.1283406 C94.7165713,22.9090894 95.7433092,21.8823515 96.9625604,21.8823515 L116.727265,21.8823515 C120.44919,21.8823515 122.951864,20.8556136 124.235286,18.6737956 C124.684484,17.9679132 124.876997,16.9411753 124.876997,15.7219241 C124.876997,13.6042772 124.235286,12.1283414 122.887692,10.9732613 C121.475928,9.68983893 119.486623,9.11229886 116.983949,9.11229886 L96.9625604,9.11229886 C95.7433092,9.11229886 94.7165713,8.08556096 94.7165713,6.86630971 L94.7165713,2.24598916 C94.7165713,1.0267379 95.7433092,-8.54931042e-15 96.9625604,-8.54931042e-15 L117.56149,-8.54931042e-15 C122.502666,-8.54931042e-15 126.545446,1.41176461 129.561489,4.23529384 C132.705874,7.05882306 134.24598,10.9090902 134.24598,15.7219241 C134.24598,21.9465226 131.486622,26.4385009 126.224591,28.7486612 C125.903735,28.8770034 125.518708,29.0695168 125.133682,29.197859 Z M151.572182,38.1176445 C152.406407,38.5026712 152.919776,39.3368958 152.919776,40.1711203 L152.919776,45.3689809 C152.919776,46.0748633 152.59892,46.7165744 152.02138,47.1657723 C151.636354,47.4866279 151.122985,47.6149701 150.673787,47.6149701 C150.481273,47.6149701 150.28876,47.6149701 150.096247,47.550799 C147.336889,46.9090878 144.962557,45.6256654 143.037424,43.7005319 C140.278066,41.0053449 138.80213,37.7967889 138.417103,34.0106929 C138.352932,33.4331529 138.545445,32.7914417 138.994643,32.2780727 C139.443841,31.8288749 140.021381,31.5721904 140.663092,31.5721904 L145.732611,31.5721904 C146.887691,31.5721904 147.786086,32.406415 147.9786,33.497324 C148.235284,34.8449175 148.876995,36.0641687 149.967904,37.0267355 C150.417102,37.4759333 150.994642,37.8609601 151.572182,38.1176445 Z M169.090898,1.40588707e-15 C170.37432,1.40588707e-15 171.401058,1.0267379 171.401058,2.24598916 L171.401058,31.1229926 C171.401058,35.7433131 170.181807,39.6577514 167.743304,42.7379651 C165.754,45.2406387 163.058813,46.8449167 159.657743,47.6149701 C159.46523,47.6791412 159.336888,47.6791412 159.144374,47.6791412 C158.631006,47.6791412 158.117637,47.550799 157.73261,47.1657723 C157.219241,46.7807456 156.898385,46.1390344 156.898385,45.4331521 L156.898385,40.4919759 C156.898385,39.5294091 157.475925,38.6951846 158.374321,38.374329 C159.46523,37.9893023 160.235283,37.3475911 160.812824,36.4491954 C161.582877,35.2299442 161.967904,33.3689817 161.967904,30.9304792 L161.967904,2.24598916 C161.967904,1.0267379 162.994642,-1.44388307e-15 164.213893,-1.44388307e-15 L169.090898,-1.44388307e-15 Z M200.021377,0.51336895 C200.534746,0.962566781 200.791431,1.60427797 200.791431,2.24598916 L200.791431,7.05882306 C200.791431,8.14973208 200.085548,9.04812774 198.994639,9.30481222 C196.235281,9.88235229 193.925121,11.1657747 191.999987,13.2192505 C189.368971,15.9786086 188.085549,19.5080201 188.085549,23.9358273 C188.085549,28.2994634 189.368971,31.8288749 191.999987,34.6524041 C193.925121,36.6417088 196.235281,37.9251312 198.994639,38.5026712 C200.085548,38.7593557 200.791431,39.6577514 200.791431,40.7486604 L200.791431,45.5614943 C200.791431,46.2032055 200.534746,46.8449167 200.021377,47.2941145 C199.572179,47.6149701 199.05881,47.8074835 198.545441,47.8074835 L198.160415,47.8074835 C193.155067,46.9732589 188.855602,44.6630986 185.390362,41.069516 C180.962555,36.5133666 178.716566,30.7379659 178.716566,23.9358273 C178.716566,17.1336887 180.962555,11.358288 185.390362,6.73796747 C188.855602,3.14438482 193.155067,0.898395662 198.160415,0.0641711187 C198.802126,-0.0641711187 199.508008,0.128342237 200.021377,0.51336895 Z M220.171108,6.73796747 C224.598916,11.358288 226.844905,17.0695176 226.844905,23.9358273 C226.844905,30.7379659 224.598916,36.5133666 220.171108,41.069516 C216.705868,44.6630986 212.406403,46.9732589 207.401056,47.8074835 L207.016029,47.8074835 C206.50266,47.8074835 205.989291,47.6149701 205.540093,47.2941145 C205.026724,46.8449167 204.77004,46.2032055 204.77004,45.5614943 L204.77004,40.7486604 C204.77004,39.6577514 205.475922,38.7593557 206.566831,38.5026712 C209.326189,37.9251312 211.63635,36.6417088 213.561483,34.6524041 C216.192499,31.8288749 217.475921,28.2994634 217.475921,23.9358273 C217.475921,19.5080201 216.192499,15.9786086 213.561483,13.2192505 C211.63635,11.1657747 209.326189,9.88235229 206.566831,9.30481222 C205.475922,9.04812774 204.77004,8.14973208 204.77004,7.05882306 L204.77004,2.24598916 C204.77004,1.60427797 205.026724,0.962566781 205.540093,0.51336895 C206.053462,0.128342237 206.759345,-0.0641711187 207.401056,0.0641711187 C212.406403,0.898395662 216.705868,3.14438482 220.171108,6.73796747 Z M278.630998,-1.44388307e-15 C279.850249,-1.44388307e-15 280.876987,1.0267379 280.876987,2.24598916 L280.876987,45.2406387 C280.876987,46.45989 279.850249,47.4866279 278.630998,47.4866279 L273.753993,47.4866279 C272.47057,47.4866279 271.508003,46.45989 271.508003,45.2406387 L271.508003,16.235293 L259.636346,31.5080193 C259.187149,32.0213883 258.545437,32.3422438 257.839555,32.3422438 C257.133673,32.3422438 256.42779,32.0213883 256.042764,31.4438482 L234.994637,3.59358265 C234.481268,2.95187146 234.417097,1.98930468 234.802123,1.28342237 C235.18715,0.51336895 235.957204,7.10542736e-15 236.791428,7.10542736e-15 L242.438487,7.10542736e-15 C243.144369,7.10542736e-15 243.78608,0.320855594 244.235278,0.898395662 L257.839555,18.8663089 L271.122977,0.898395662 C271.572175,0.320855594 272.213886,7.10542736e-15 272.983939,7.10542736e-15 L278.630998,-1.44388307e-15 Z M241.668433,31.1229926 C242.887684,31.1229926 243.914422,32.0855594 243.914422,33.3689817 L243.914422,45.2406387 C243.914422,46.45989 242.887684,47.4866279 241.668433,47.4866279 L236.791428,47.4866279 C235.572177,47.4866279 234.545439,46.45989 234.545439,45.2406387 L234.545439,33.3689817 C234.545439,32.0855594 235.572177,31.1229926 236.791428,31.1229926 L241.668433,31.1229926 Z M333.497304,44.4705853 C333.81816,45.1764676 333.689817,45.946521 333.304791,46.5882322 C332.855593,47.2299434 332.149711,47.6149701 331.443828,47.6149701 L288.705863,47.6149701 C287.93581,47.6149701 287.229927,47.2299434 286.844901,46.5882322 C286.395703,45.946521 286.331532,45.1764676 286.652387,44.4705853 L288.641692,39.7860936 C288.962548,38.9518691 289.796772,38.374329 290.695168,38.374329 L320.598909,38.374329 L318.673776,33.7540085 L310.074846,13.2192505 L301.475916,33.7540085 C301.15506,34.588233 300.320836,35.101602 299.42244,35.101602 L294.032066,35.101602 C293.262013,35.101602 292.55613,34.7165752 292.106933,34.0748641 C291.721906,33.497324 291.657735,32.6630994 291.914419,31.9572171 L304.941156,1.41176461 C305.262012,0.51336895 306.096236,-8.54931042e-15 306.994632,-8.54931042e-15 L313.155059,-8.54931042e-15 C314.053455,-8.54931042e-15 314.823509,0.51336895 315.208535,1.41176461 L333.497304,44.4705853 Z M379.957194,43.9572163 C380.470563,44.5989275 380.534734,45.4973232 380.149707,46.2673766 C379.764681,47.03743 378.994627,47.4866279 378.160403,47.4866279 L372.064146,47.4866279 C371.294093,47.4866279 370.588211,47.1016012 370.203184,46.5240611 L354.866287,24.4491962 L348.577517,30.3529392 L348.577517,45.2406387 C348.577517,46.45989 347.550779,47.4866279 346.331528,47.4866279 L341.454523,47.4866279 C340.235272,47.4866279 339.208534,46.45989 339.208534,45.2406387 L339.208534,27.4010677 C339.208534,26.7593565 339.465218,26.1818164 339.914416,25.7967897 L366.737944,0.641711187 C367.187141,0.192513356 367.70051,-1.44388307e-15 368.27805,-1.44388307e-15 L375.208531,-1.44388307e-15 C376.106927,-1.44388307e-15 376.941151,0.577540069 377.262007,1.41176461 C377.647034,2.31016027 377.390349,3.27272706 376.748638,3.91443824 L361.732596,18.0320844 L379.957194,43.9572163 Z M341.454523,16.3636353 C340.235272,16.3636353 339.208534,15.4010685 339.208534,14.1176461 L339.208534,2.24598916 C339.208534,1.0267379 340.235272,3.32473772e-16 341.454523,3.32473772e-16 L346.331528,3.32473772e-16 C347.550779,3.32473772e-16 348.577517,1.0267379 348.577517,2.24598916 L348.577517,14.1176461 C348.577517,15.4010685 347.550779,16.3636353 346.331528,16.3636353 L341.454523,16.3636353 Z" id="Shape"></path>
            </g>
        </g>
    </g>
</svg>